{
    "asset" : {
        "generator" : "Khronos glTF Blender I/O v1.5.17",
        "version" : "2.0"
    },
    "scene" : 0,
    "scenes" : [
        {
            "name" : "Scene",
            "nodes" : [
                0,
                1,
                3,
                4,
                5,
                6,
                7,
                8
            ]
        }
    ],
    "nodes" : [
        {
            "name" : "Light",
            "rotation" : [
                0.16907575726509094,
                0.7558803558349609,
                -0.27217137813568115,
                0.570947527885437
            ],
            "translation" : [
                4.076245307922363,
                5.903861999511719,
                -1.0054539442062378
            ]
        },
        {
            "name" : "Camera",
            "rotation" : [
                0.483536034822464,
                0.33687159419059753,
                -0.20870360732078552,
                0.7804827094078064
            ],
            "translation" : [
                7.358891487121582,
                4.958309173583984,
                6.925790786743164
            ]
        },
        {
            "name" : "skp_camera_Last_Saved_SketchUp_View",
            "rotation" : [
                0.4553561210632324,
                0.029062611982226372,
                -0.014874322339892387,
                0.8897106051445007
            ],
            "translation" : [
                4.047228813171387,
                10.10752010345459,
                10.151490211486816
            ]
        },
        {
            "children" : [
                2
            ],
            "mesh" : 0,
            "name" : "SketchUp",
            "scale" : [
                0.18984775245189667,
                0.22501464188098907,
                0.1947384923696518
            ]
        },
        {
            "mesh" : 1,
            "name" : "SketchUp.001",
            "scale" : [
                0.18984775245189667,
                0.22501464188098907,
                0.1947384923696518
            ]
        },
        {
            "mesh" : 2,
            "name" : "SketchUp.002",
            "scale" : [
                0.18984775245189667,
                0.22501464188098907,
                0.1947384923696518
            ]
        },
        {
            "mesh" : 3,
            "name" : "SketchUp.003",
            "scale" : [
                0.18984775245189667,
                0.22501464188098907,
                0.1947384923696518
            ]
        },
        {
            "name" : "SketchUp.004",
            "scale" : [
                0.18984775245189667,
                0.22501464188098907,
                0.1947384923696518
            ]
        },
        {
            "name" : "SketchUp.005",
            "scale" : [
                0.18984775245189667,
                0.22501464188098907,
                0.1947384923696518
            ]
        }
    ],
    "materials" : [
        {
            "doubleSided" : true,
            "name" : "Ceramic",
            "pbrMetallicRoughness" : {}
        },
        {
            "doubleSided" : true,
            "name" : "Coffee",
            "pbrMetallicRoughness" : {}
        }
    ],
    "meshes" : [
        {
            "name" : "ID3",
            "primitives" : [
                {
                    "attributes" : {
                        "POSITION" : 0,
                        "NORMAL" : 1
                    },
                    "indices" : 2,
                    "material" : 0
                }
            ]
        },
        {
            "name" : "ID15",
            "primitives" : [
                {
                    "attributes" : {
                        "POSITION" : 3,
                        "NORMAL" : 4
                    },
                    "indices" : 5,
                    "material" : 0
                }
            ]
        },
        {
            "name" : "ID23",
            "primitives" : [
                {
                    "attributes" : {
                        "POSITION" : 6,
                        "NORMAL" : 7
                    },
                    "indices" : 8,
                    "material" : 0
                }
            ]
        },
        {
            "name" : "ID31",
            "primitives" : [
                {
                    "attributes" : {
                        "POSITION" : 9,
                        "NORMAL" : 10
                    },
                    "indices" : 11,
                    "material" : 0
                },
                {
                    "attributes" : {
                        "POSITION" : 12,
                        "NORMAL" : 13
                    },
                    "indices" : 14,
                    "material" : 1
                }
            ]
        }
    ],
    "accessors" : [
        {
            "bufferView" : 0,
            "componentType" : 5126,
            "count" : 502,
            "max" : [
                3.254384994506836,
                0.6707571148872375,
                3.079819917678833
            ],
            "min" : [
                -3.21376895904541,
                0,
                -3.388334035873413
            ],
            "type" : "VEC3"
        },
        {
            "bufferView" : 1,
            "componentType" : 5126,
            "count" : 502,
            "type" : "VEC3"
        },
        {
            "bufferView" : 2,
            "componentType" : 5123,
            "count" : 2532,
            "type" : "SCALAR"
        },
        {
            "bufferView" : 3,
            "componentType" : 5126,
            "count" : 104,
            "max" : [
                2.9569408893585205,
                2.0973949432373047,
                0.017428670078516006
            ],
            "min" : [
                1.8661400079727173,
                1.0116790533065796,
                -0.3259428143501282
            ],
            "type" : "VEC3"
        },
        {
            "bufferView" : 4,
            "componentType" : 5126,
            "count" : 104,
            "type" : "VEC3"
        },
        {
            "bufferView" : 5,
            "componentType" : 5123,
            "count" : 468,
            "type" : "SCALAR"
        },
        {
            "bufferView" : 6,
            "componentType" : 5126,
            "count" : 774,
            "max" : [
                3.1207590103149414,
                2.7664599418640137,
                1.8895939588546753
            ],
            "min" : [
                -2.023542881011963,
                0.14359520375728607,
                -2.198107957839966
            ],
            "type" : "VEC3"
        },
        {
            "bufferView" : 7,
            "componentType" : 5126,
            "count" : 774,
            "type" : "VEC3"
        },
        {
            "bufferView" : 8,
            "componentType" : 5123,
            "count" : 3636,
            "type" : "SCALAR"
        },
        {
            "bufferView" : 9,
            "componentType" : 5126,
            "count" : 58,
            "max" : [
                1.88270902633667,
                2.5209290981292725,
                1.708143949508667
            ],
            "min" : [
                -1.8420920372009277,
                2.5209290981292725,
                -2.016658067703247
            ],
            "type" : "VEC3"
        },
        {
            "bufferView" : 10,
            "componentType" : 5126,
            "count" : 58,
            "type" : "VEC3"
        },
        {
            "bufferView" : 11,
            "componentType" : 5123,
            "count" : 66,
            "type" : "SCALAR"
        },
        {
            "bufferView" : 12,
            "componentType" : 5126,
            "count" : 64,
            "max" : [
                1.88270902633667,
                2.5209290981292725,
                1.708143949508667
            ],
            "min" : [
                -1.8420920372009277,
                2.5209290981292725,
                -2.016658067703247
            ],
            "type" : "VEC3"
        },
        {
            "bufferView" : 13,
            "componentType" : 5126,
            "count" : 64,
            "type" : "VEC3"
        },
        {
            "bufferView" : 14,
            "componentType" : 5123,
            "count" : 66,
            "type" : "SCALAR"
        }
    ],
    "bufferViews" : [
        {
            "buffer" : 0,
            "byteLength" : 6024,
            "byteOffset" : 0
        },
        {
            "buffer" : 0,
            "byteLength" : 6024,
            "byteOffset" : 6024
        },
        {
            "buffer" : 0,
            "byteLength" : 5064,
            "byteOffset" : 12048
        },
        {
            "buffer" : 0,
            "byteLength" : 1248,
            "byteOffset" : 17112
        },
        {
            "buffer" : 0,
            "byteLength" : 1248,
            "byteOffset" : 18360
        },
        {
            "buffer" : 0,
            "byteLength" : 936,
            "byteOffset" : 19608
        },
        {
            "buffer" : 0,
            "byteLength" : 9288,
            "byteOffset" : 20544
        },
        {
            "buffer" : 0,
            "byteLength" : 9288,
            "byteOffset" : 29832
        },
        {
            "buffer" : 0,
            "byteLength" : 7272,
            "byteOffset" : 39120
        },
        {
            "buffer" : 0,
            "byteLength" : 696,
            "byteOffset" : 46392
        },
        {
            "buffer" : 0,
            "byteLength" : 696,
            "byteOffset" : 47088
        },
        {
            "buffer" : 0,
            "byteLength" : 132,
            "byteOffset" : 47784
        },
        {
            "buffer" : 0,
            "byteLength" : 768,
            "byteOffset" : 47916
        },
        {
            "buffer" : 0,
            "byteLength" : 768,
            "byteOffset" : 48684
        },
        {
            "buffer" : 0,
            "byteLength" : 132,
            "byteOffset" : 49452
        }
    ],
    "buffers" : [
        {
            "byteLength" : 49584,
            "uri" : "data:application/octet-stream;base64,"
        }
    ]
}
